<svg width="129" height="32" viewBox="0 0 129 32" fill="none" xmlns="http://www.w3.org/2000/svg">
<g clip-path="url(#clip0_49_5000)">
<path fill-rule="evenodd" clip-rule="evenodd" d="M22.857 27.4287C24.0576 27.4287 25.2466 27.1922 26.3558 26.7327C27.4651 26.2732 28.473 25.5998 29.322 24.7508C30.171 23.9018 30.8444 22.8939 31.3039 21.7846C31.7633 20.6754 31.9999 19.4865 31.9999 18.2858C31.9999 14.6486 30.5549 11.1602 27.983 8.58836C25.4112 6.01642 21.9228 4.57153 18.2856 4.57153C14.6484 4.57153 11.16 6.01642 8.58811 8.58836C6.01618 11.1602 4.57129 14.6486 4.57129 18.2858C4.57129 19.4865 4.80778 20.6754 5.26724 21.7846C5.72672 22.8939 6.40018 23.9018 7.24917 24.7508C8.09816 25.5998 9.10606 26.2732 10.2154 26.7327C11.3246 27.1922 12.5135 27.4287 13.7141 27.4287H22.857ZM18.2856 8.22868C15.6182 8.22868 13.0602 9.28824 11.1741 11.1743C9.288 13.0604 8.22843 15.6185 8.22843 18.2858C8.22843 19.0062 8.37032 19.7195 8.646 20.3851C8.92169 21.0507 9.32576 21.6554 9.8352 22.1648C10.3445 22.6742 10.9493 23.0782 11.6149 23.354C12.2805 23.6296 12.9938 23.7715 13.7141 23.7715H22.857C23.5774 23.7715 24.2907 23.6296 24.9563 23.354C25.6219 23.0782 26.2266 22.6742 26.736 22.1648C27.2454 21.6554 27.6494 21.0507 27.9252 20.3851C28.2008 19.7195 28.3427 19.0062 28.3427 18.2858C28.3427 15.6185 27.2832 13.0604 25.3971 11.1743C23.511 9.28824 20.9529 8.22868 18.2856 8.22868Z" fill="#1842B4"/>
<path fill-rule="evenodd" clip-rule="evenodd" d="M11.8857 32C10.3248 32 8.77932 31.6453 7.33725 30.9561C5.89524 30.2669 4.58496 29.2567 3.48124 27.9832C2.37757 26.7097 1.50207 25.1979 0.904746 23.534C0.307435 21.8701 0 20.0867 0 18.2857C0 13.4361 1.92653 8.785 5.35577 5.35576C8.785 1.92653 13.4361 0 18.2857 0C23.1354 0 27.7864 1.92653 31.2156 5.35576C34.6449 8.785 36.5714 13.4361 36.5714 18.2857C36.5714 20.0867 36.264 21.8701 35.6667 23.534C35.0694 25.1979 34.1938 26.7097 33.0902 27.9832C31.9865 29.2567 30.6762 30.2669 29.2342 30.9561C27.7921 31.6453 26.2466 32 24.6857 32H11.8857ZM7.94175 7.94175C10.6852 5.19836 14.4059 3.65714 18.2857 3.65714C22.1655 3.65714 25.8863 5.19836 28.6297 7.94175C31.3731 10.6852 32.9143 14.4059 32.9143 18.2857C32.9143 19.6735 32.6769 21.0384 32.2246 22.2983C31.7723 23.5582 31.1201 24.6724 30.3265 25.588C29.5338 26.5027 28.6213 27.1956 27.6571 27.6564C26.6954 28.1161 25.6875 28.3429 24.6857 28.3429H11.8857C10.8839 28.3429 9.87602 28.1161 8.91428 27.6564C7.95016 27.1956 7.03762 26.5027 6.24491 25.588C5.45136 24.6724 4.79911 23.5582 4.34682 22.2983C3.8945 21.0384 3.65714 19.6735 3.65714 18.2857C3.65714 14.4059 5.19836 10.6852 7.94175 7.94175Z" fill="#1842B4"/>
<path d="M22.8569 22.8571H18.2814C17.9742 22.8568 17.6693 22.8256 17.3712 22.7648C16.7933 22.6468 16.2408 22.4175 15.7457 22.0866C14.9939 21.5843 14.4079 20.8705 14.062 20.0351C13.9498 19.7642 13.8644 19.4845 13.8063 19.2C13.6853 18.6071 13.6826 17.993 13.8019 17.3938C13.9782 16.507 14.4136 15.6925 15.053 15.0532C15.6922 14.4139 16.5068 13.9785 17.3935 13.8021C17.4213 13.7965 17.449 13.7913 17.4768 13.7863C17.7448 13.7382 18.0154 13.7143 18.2854 13.7143C18.8829 13.7143 19.4775 13.8314 20.0348 14.0622C20.8701 14.4082 21.5841 14.9942 22.0864 15.7459C22.5888 16.4977 22.8569 17.3815 22.8569 18.2857H19.1997C19.1997 18.1048 19.1461 17.9281 19.0457 17.7777C18.9452 17.6274 18.8024 17.5102 18.6353 17.441C18.4683 17.3718 18.2844 17.3537 18.1071 17.3889C17.9297 17.4242 17.7668 17.5113 17.6389 17.6392C17.511 17.767 17.424 17.9299 17.3887 18.1073C17.3534 18.2847 17.3715 18.4685 17.4407 18.6356C17.5099 18.8026 17.6272 18.9454 17.7775 19.0459C17.9279 19.1464 18.1046 19.2 18.2854 19.2H22.8569C22.9769 19.2 23.0959 19.1763 23.2068 19.1304C23.3177 19.0844 23.4184 19.0171 23.5034 18.9322C23.5883 18.8472 23.6556 18.7465 23.7016 18.6356C23.7475 18.5247 23.7712 18.4057 23.7712 18.2857C23.7712 16.8308 23.1932 15.4355 22.1644 14.4067C21.1356 13.3779 19.7403 12.8 18.2854 12.8C18.1276 12.8 17.9706 12.8067 17.8146 12.8202C17.4312 12.8532 17.0543 12.9263 16.69 13.0371C16.3315 13.146 15.9851 13.2915 15.6562 13.4711C15.2795 13.6768 14.9259 13.9273 14.6036 14.2191C14.5365 14.2798 14.4708 14.3424 14.4065 14.4067C13.9564 14.8567 13.5926 15.3771 13.3257 15.9417C13.1923 16.2241 13.0831 16.5175 12.9995 16.8188C12.9039 17.1633 12.8417 17.518 12.8149 17.8783C12.8048 18.0134 12.7997 18.1493 12.7997 18.2857C12.7997 19.0026 12.9402 19.7162 13.2173 20.385C13.6325 21.3874 14.3356 22.2441 15.2378 22.8469C15.2429 22.8503 15.248 22.8537 15.2531 22.8571H13.714C13.1137 22.8571 12.5192 22.7389 11.9646 22.5091C11.41 22.2794 10.9061 21.9426 10.4816 21.5181C10.057 21.0936 9.72032 20.5897 9.49056 20.0351C9.2608 19.4805 9.14258 18.886 9.14258 18.2857C9.14258 15.8608 10.1059 13.5353 11.8204 11.8207C13.5351 10.1061 15.8606 9.14282 18.2854 9.14282C20.7103 9.14282 23.0358 10.1061 24.7504 11.8207C26.465 13.5353 27.4283 15.8608 27.4283 18.2857C27.4283 18.886 27.3101 19.4805 27.0803 20.0351C26.8506 20.5897 26.5138 21.0936 26.0893 21.5181C25.6648 21.9426 25.1609 22.2794 24.6063 22.5091C24.0517 22.7389 23.4572 22.8571 22.8569 22.8571Z" fill="#1842B4"/>
<g clip-path="url(#clip1_49_5000)">
<path fill-rule="evenodd" clip-rule="evenodd" d="M22.857 27.4287C24.0576 27.4287 25.2466 27.1922 26.3558 26.7327C27.4651 26.2732 28.473 25.5998 29.322 24.7508C30.171 23.9018 30.8444 22.8939 31.3039 21.7846C31.7633 20.6754 31.9999 19.4865 31.9999 18.2858C31.9999 14.6486 30.5549 11.1602 27.983 8.58836C25.4112 6.01642 21.9228 4.57153 18.2856 4.57153C14.6484 4.57153 11.16 6.01642 8.58811 8.58836C6.01618 11.1602 4.57129 14.6486 4.57129 18.2858C4.57129 19.4865 4.80778 20.6754 5.26724 21.7846C5.72672 22.8939 6.40018 23.9018 7.24917 24.7508C8.09816 25.5998 9.10606 26.2732 10.2154 26.7327C11.3246 27.1922 12.5135 27.4287 13.7141 27.4287H22.857ZM18.2856 8.22868C15.6182 8.22868 13.0602 9.28824 11.1741 11.1743C9.288 13.0604 8.22843 15.6185 8.22843 18.2858C8.22843 19.0062 8.37032 19.7195 8.646 20.3851C8.92169 21.0507 9.32576 21.6554 9.8352 22.1648C10.3445 22.6742 10.9493 23.0782 11.6149 23.354C12.2805 23.6296 12.9938 23.7715 13.7141 23.7715H22.857C23.5774 23.7715 24.2907 23.6296 24.9563 23.354C25.6219 23.0782 26.2266 22.6742 26.736 22.1648C27.2454 21.6554 27.6494 21.0507 27.9252 20.3851C28.2008 19.7195 28.3427 19.0062 28.3427 18.2858C28.3427 15.6185 27.2832 13.0604 25.3971 11.1743C23.511 9.28824 20.9529 8.22868 18.2856 8.22868Z" fill="#1842B4"/>
<path fill-rule="evenodd" clip-rule="evenodd" d="M11.8857 32C10.3248 32 8.77932 31.6453 7.33725 30.9561C5.89524 30.2669 4.58496 29.2567 3.48124 27.9832C2.37757 26.7097 1.50207 25.1979 0.904746 23.534C0.307435 21.8701 0 20.0867 0 18.2857C0 13.4361 1.92653 8.785 5.35577 5.35576C8.785 1.92653 13.4361 0 18.2857 0C23.1354 0 27.7864 1.92653 31.2156 5.35576C34.6449 8.785 36.5714 13.4361 36.5714 18.2857C36.5714 20.0867 36.264 21.8701 35.6667 23.534C35.0694 25.1979 34.1938 26.7097 33.0902 27.9832C31.9865 29.2567 30.6762 30.2669 29.2342 30.9561C27.7921 31.6453 26.2466 32 24.6857 32H11.8857ZM7.94175 7.94175C10.6852 5.19836 14.4059 3.65714 18.2857 3.65714C22.1655 3.65714 25.8863 5.19836 28.6297 7.94175C31.3731 10.6852 32.9143 14.4059 32.9143 18.2857C32.9143 19.6735 32.6769 21.0384 32.2246 22.2983C31.7723 23.5582 31.1201 24.6724 30.3265 25.588C29.5338 26.5027 28.6213 27.1956 27.6571 27.6564C26.6954 28.1161 25.6875 28.3429 24.6857 28.3429H11.8857C10.8839 28.3429 9.87602 28.1161 8.91428 27.6564C7.95016 27.1956 7.03762 26.5027 6.24491 25.588C5.45136 24.6724 4.79911 23.5582 4.34682 22.2983C3.8945 21.0384 3.65714 19.6735 3.65714 18.2857C3.65714 14.4059 5.19836 10.6852 7.94175 7.94175Z" fill="#1842B4"/>
<path d="M22.8569 22.8571H18.2814C17.9742 22.8568 17.6693 22.8256 17.3712 22.7648C16.7933 22.6468 16.2408 22.4175 15.7457 22.0866C14.9939 21.5843 14.4079 20.8705 14.062 20.0351C13.9498 19.7642 13.8644 19.4845 13.8063 19.2C13.6853 18.6071 13.6826 17.993 13.8019 17.3938C13.9782 16.507 14.4136 15.6925 15.053 15.0532C15.6922 14.4139 16.5068 13.9785 17.3935 13.8021C17.4213 13.7965 17.449 13.7913 17.4768 13.7863C17.7448 13.7382 18.0154 13.7143 18.2854 13.7143C18.8829 13.7143 19.4775 13.8314 20.0348 14.0622C20.8701 14.4082 21.5841 14.9942 22.0864 15.7459C22.5888 16.4977 22.8569 17.3815 22.8569 18.2857H19.1997C19.1997 18.1048 19.1461 17.9281 19.0457 17.7777C18.9452 17.6274 18.8024 17.5102 18.6353 17.441C18.4683 17.3718 18.2844 17.3537 18.1071 17.3889C17.9297 17.4242 17.7668 17.5113 17.6389 17.6392C17.511 17.767 17.424 17.9299 17.3887 18.1073C17.3534 18.2847 17.3715 18.4685 17.4407 18.6356C17.5099 18.8026 17.6272 18.9454 17.7775 19.0459C17.9279 19.1464 18.1046 19.2 18.2854 19.2H22.8569C22.9769 19.2 23.0959 19.1763 23.2068 19.1304C23.3177 19.0844 23.4184 19.0171 23.5034 18.9322C23.5883 18.8472 23.6556 18.7465 23.7016 18.6356C23.7475 18.5247 23.7712 18.4057 23.7712 18.2857C23.7712 16.8308 23.1932 15.4355 22.1644 14.4067C21.1356 13.3779 19.7403 12.8 18.2854 12.8C18.1276 12.8 17.9706 12.8067 17.8146 12.8202C17.4312 12.8532 17.0543 12.9263 16.69 13.0371C16.3315 13.146 15.9851 13.2915 15.6562 13.4711C15.2795 13.6768 14.9259 13.9273 14.6036 14.2191C14.5365 14.2798 14.4708 14.3424 14.4065 14.4067C13.9564 14.8567 13.5926 15.3771 13.3257 15.9417C13.1923 16.2241 13.0831 16.5175 12.9995 16.8188C12.9039 17.1633 12.8417 17.518 12.8149 17.8783C12.8048 18.0134 12.7997 18.1493 12.7997 18.2857C12.7997 19.0026 12.9402 19.7162 13.2173 20.385C13.6325 21.3874 14.3356 22.2441 15.2378 22.8469C15.2429 22.8503 15.248 22.8537 15.2531 22.8571H13.714C13.1137 22.8571 12.5192 22.7389 11.9646 22.5091C11.41 22.2794 10.9061 21.9426 10.4816 21.5181C10.057 21.0936 9.72032 20.5897 9.49056 20.0351C9.2608 19.4805 9.14258 18.886 9.14258 18.2857C9.14258 15.8608 10.1059 13.5353 11.8204 11.8207C13.5351 10.1061 15.8606 9.14282 18.2854 9.14282C20.7103 9.14282 23.0358 10.1061 24.7504 11.8207C26.465 13.5353 27.4283 15.8608 27.4283 18.2857C27.4283 18.886 27.3101 19.4805 27.0803 20.0351C26.8506 20.5897 26.5138 21.0936 26.0893 21.5181C25.6648 21.9426 25.1609 22.2794 24.6063 22.5091C24.0517 22.7389 23.4572 22.8571 22.8569 22.8571Z" fill="#1842B4"/>
</g>
</g>
<path d="M51.6823 21.239C52.1003 21.239 52.4423 21.2073 52.7083 21.144C52.987 21.068 53.2086 20.973 53.3733 20.859C53.538 20.7323 53.652 20.5867 53.7153 20.422C53.7786 20.2573 53.8103 20.0737 53.8103 19.871C53.8103 19.4403 53.6076 19.0857 53.2023 18.807C52.797 18.5157 52.1003 18.2053 51.1123 17.876C50.6816 17.724 50.251 17.553 49.8203 17.363C49.3896 17.1603 49.0033 16.9133 48.6613 16.622C48.3193 16.318 48.0406 15.957 47.8253 15.539C47.61 15.1083 47.5023 14.589 47.5023 13.981C47.5023 13.373 47.6163 12.8283 47.8443 12.347C48.0723 11.853 48.3953 11.435 48.8133 11.093C49.2313 10.751 49.738 10.4913 50.3333 10.314C50.9286 10.124 51.6 10.029 52.3473 10.029C53.234 10.029 54.0003 10.124 54.6463 10.314C55.2923 10.504 55.8243 10.713 56.2423 10.941L55.3873 13.278C55.02 13.088 54.6083 12.9233 54.1523 12.784C53.709 12.632 53.1706 12.556 52.5373 12.556C51.828 12.556 51.315 12.6573 50.9983 12.86C50.6943 13.05 50.5423 13.3477 50.5423 13.753C50.5423 13.9937 50.5993 14.1963 50.7133 14.361C50.8273 14.5257 50.9856 14.6777 51.1883 14.817C51.4036 14.9437 51.6443 15.064 51.9103 15.178C52.189 15.2793 52.493 15.387 52.8223 15.501C53.5063 15.7543 54.1016 16.0077 54.6083 16.261C55.115 16.5017 55.533 16.7867 55.8623 17.116C56.2043 17.4453 56.4576 17.8317 56.6223 18.275C56.787 18.7183 56.8693 19.2567 56.8693 19.89C56.8693 21.1187 56.4386 22.075 55.5773 22.759C54.716 23.4303 53.4176 23.766 51.6823 23.766C51.0996 23.766 50.574 23.728 50.1053 23.652C49.6366 23.5887 49.2186 23.5063 48.8513 23.405C48.4966 23.3037 48.1863 23.196 47.9203 23.082C47.667 22.968 47.4516 22.8603 47.2743 22.759L48.1103 20.403C48.503 20.6183 48.9843 20.8147 49.5543 20.992C50.137 21.1567 50.8463 21.239 51.6823 21.239ZM67.4909 23.158C67.0096 23.2973 66.3889 23.424 65.6289 23.538C64.8689 23.6647 64.0709 23.728 63.2349 23.728C62.3862 23.728 61.6769 23.614 61.1069 23.386C60.5495 23.158 60.1062 22.8413 59.7769 22.436C59.4475 22.018 59.2132 21.524 59.0739 20.954C58.9345 20.384 58.8649 19.757 58.8649 19.073V13.506H61.6959V18.731C61.6959 19.643 61.8162 20.3017 62.0569 20.707C62.2975 21.1123 62.7472 21.315 63.4059 21.315C63.6085 21.315 63.8239 21.3087 64.0519 21.296C64.2799 21.2707 64.4825 21.2453 64.6599 21.22V13.506H67.4909V23.158ZM76.1714 16.014C75.918 15.9507 75.6204 15.8873 75.2784 15.824C74.9364 15.748 74.569 15.71 74.1764 15.71C73.999 15.71 73.7837 15.729 73.5304 15.767C73.2897 15.7923 73.106 15.824 72.9794 15.862V23.5H70.1484V14.038C70.655 13.8607 71.2504 13.696 71.9344 13.544C72.631 13.3793 73.4037 13.297 74.2524 13.297C74.4044 13.297 74.588 13.3097 74.8034 13.335C75.0187 13.3477 75.234 13.373 75.4494 13.411C75.6647 13.4363 75.88 13.4743 76.0954 13.525C76.3107 13.563 76.4944 13.6137 76.6464 13.677L76.1714 16.014ZM77.5034 18.579C77.5034 17.6923 77.6364 16.9197 77.9024 16.261C78.1811 15.5897 78.5421 15.0323 78.9854 14.589C79.4288 14.1457 79.9354 13.81 80.5054 13.582C81.0881 13.354 81.6834 13.24 82.2914 13.24C83.7101 13.24 84.8311 13.677 85.6544 14.551C86.4778 15.4123 86.8894 16.6853 86.8894 18.37C86.8894 18.5347 86.8831 18.7183 86.8704 18.921C86.8578 19.111 86.8451 19.282 86.8324 19.434H80.4104C80.4738 20.0167 80.7461 20.479 81.2274 20.821C81.7088 21.163 82.3548 21.334 83.1654 21.334C83.6848 21.334 84.1914 21.2897 84.6854 21.201C85.1921 21.0997 85.6038 20.9793 85.9204 20.84L86.3004 23.139C86.1484 23.215 85.9458 23.291 85.6924 23.367C85.4391 23.443 85.1541 23.5063 84.8374 23.557C84.5334 23.6203 84.2041 23.671 83.8494 23.709C83.4948 23.747 83.1401 23.766 82.7854 23.766C81.8861 23.766 81.1008 23.633 80.4294 23.367C79.7708 23.101 79.2198 22.74 78.7764 22.284C78.3458 21.8153 78.0228 21.2643 77.8074 20.631C77.6048 19.9977 77.5034 19.3137 77.5034 18.579ZM84.1534 17.496C84.1408 17.2553 84.0964 17.021 84.0204 16.793C83.9571 16.565 83.8494 16.3623 83.6974 16.185C83.5581 16.0077 83.3744 15.862 83.1464 15.748C82.9311 15.634 82.6588 15.577 82.3294 15.577C82.0128 15.577 81.7404 15.634 81.5124 15.748C81.2844 15.8493 81.0944 15.9887 80.9424 16.166C80.7904 16.3433 80.6701 16.5523 80.5814 16.793C80.5054 17.021 80.4484 17.2553 80.4104 17.496H84.1534ZM91.9431 21.467C92.4625 21.467 92.8298 21.4163 93.0451 21.315C93.2605 21.2137 93.3681 21.0173 93.3681 20.726C93.3681 20.498 93.2288 20.3017 92.9501 20.137C92.6715 19.9597 92.2471 19.7633 91.6771 19.548C91.2338 19.3833 90.8285 19.2123 90.4611 19.035C90.1065 18.8577 89.8025 18.6487 89.5491 18.408C89.2958 18.1547 89.0995 17.857 88.9601 17.515C88.8208 17.173 88.7511 16.7613 88.7511 16.28C88.7511 15.3427 89.0995 14.6017 89.7961 14.057C90.4928 13.5123 91.4491 13.24 92.6651 13.24C93.2731 13.24 93.8558 13.297 94.4131 13.411C94.9705 13.5123 95.4138 13.6263 95.7431 13.753L95.2491 15.957C94.9198 15.843 94.5588 15.7417 94.1661 15.653C93.7861 15.5643 93.3555 15.52 92.8741 15.52C91.9875 15.52 91.5441 15.767 91.5441 16.261C91.5441 16.375 91.5631 16.4763 91.6011 16.565C91.6391 16.6537 91.7151 16.7423 91.8291 16.831C91.9431 16.907 92.0951 16.9957 92.2851 17.097C92.4878 17.1857 92.7411 17.287 93.0451 17.401C93.6658 17.629 94.1788 17.857 94.5841 18.085C94.9895 18.3003 95.3061 18.541 95.5341 18.807C95.7748 19.0603 95.9395 19.3453 96.0281 19.662C96.1295 19.9787 96.1801 20.346 96.1801 20.764C96.1801 21.752 95.8065 22.4993 95.0591 23.006C94.3245 23.5127 93.2795 23.766 91.9241 23.766C91.0375 23.766 90.2965 23.69 89.7011 23.538C89.1185 23.386 88.7131 23.2593 88.4851 23.158L88.9601 20.859C89.4415 21.049 89.9355 21.201 90.4421 21.315C90.9488 21.4163 91.4491 21.467 91.9431 21.467ZM102.115 21.524C102.393 21.524 102.659 21.5177 102.913 21.505C103.166 21.4923 103.369 21.4733 103.521 21.448V19.301C103.407 19.2757 103.236 19.2503 103.008 19.225C102.78 19.1997 102.571 19.187 102.381 19.187C102.115 19.187 101.861 19.206 101.621 19.244C101.393 19.2693 101.19 19.3263 101.013 19.415C100.835 19.5037 100.696 19.624 100.595 19.776C100.493 19.928 100.443 20.118 100.443 20.346C100.443 20.7893 100.588 21.0997 100.88 21.277C101.184 21.4417 101.595 21.524 102.115 21.524ZM101.887 13.24C102.723 13.24 103.419 13.335 103.977 13.525C104.534 13.715 104.977 13.9873 105.307 14.342C105.649 14.6967 105.889 15.1273 106.029 15.634C106.168 16.1407 106.238 16.7043 106.238 17.325V23.215C105.832 23.3037 105.269 23.405 104.547 23.519C103.825 23.6457 102.951 23.709 101.925 23.709C101.279 23.709 100.69 23.652 100.158 23.538C99.6385 23.424 99.1888 23.2403 98.8088 22.987C98.4288 22.721 98.1375 22.379 97.9348 21.961C97.7322 21.543 97.6308 21.03 97.6308 20.422C97.6308 19.8393 97.7448 19.3453 97.9728 18.94C98.2135 18.5347 98.5302 18.2117 98.9228 17.971C99.3155 17.7303 99.7652 17.5593 100.272 17.458C100.778 17.344 101.304 17.287 101.849 17.287C102.216 17.287 102.539 17.306 102.818 17.344C103.109 17.3693 103.343 17.4073 103.521 17.458V17.192C103.521 16.7107 103.375 16.3243 103.084 16.033C102.792 15.7417 102.286 15.596 101.564 15.596C101.082 15.596 100.607 15.634 100.139 15.71C99.6702 15.7733 99.2648 15.8683 98.9228 15.995L98.5618 13.715C98.7265 13.6643 98.9292 13.6137 99.1698 13.563C99.4232 13.4997 99.6955 13.449 99.9868 13.411C100.278 13.3603 100.582 13.3223 100.899 13.297C101.228 13.259 101.557 13.24 101.887 13.24ZM111.274 23.5C110.628 22.2333 109.969 20.7513 109.298 19.054C108.639 17.3567 108.012 15.5073 107.417 13.506H110.419C110.545 14 110.691 14.5383 110.856 15.121C111.033 15.691 111.21 16.2737 111.388 16.869C111.578 17.4517 111.761 18.0217 111.939 18.579C112.129 19.1363 112.312 19.643 112.49 20.099C112.654 19.643 112.832 19.1363 113.022 18.579C113.212 18.0217 113.395 17.4517 113.573 16.869C113.763 16.2737 113.94 15.691 114.105 15.121C114.282 14.5383 114.434 14 114.561 13.506H117.487C116.891 15.5073 116.258 17.3567 115.587 19.054C114.928 20.7513 114.276 22.2333 113.63 23.5H111.274ZM118.268 18.579C118.268 17.6923 118.401 16.9197 118.667 16.261C118.946 15.5897 119.307 15.0323 119.75 14.589C120.193 14.1457 120.7 13.81 121.27 13.582C121.853 13.354 122.448 13.24 123.056 13.24C124.475 13.24 125.596 13.677 126.419 14.551C127.242 15.4123 127.654 16.6853 127.654 18.37C127.654 18.5347 127.648 18.7183 127.635 18.921C127.622 19.111 127.61 19.282 127.597 19.434H121.175C121.238 20.0167 121.511 20.479 121.992 20.821C122.473 21.163 123.119 21.334 123.93 21.334C124.449 21.334 124.956 21.2897 125.45 21.201C125.957 21.0997 126.368 20.9793 126.685 20.84L127.065 23.139C126.913 23.215 126.71 23.291 126.457 23.367C126.204 23.443 125.919 23.5063 125.602 23.557C125.298 23.6203 124.969 23.671 124.614 23.709C124.259 23.747 123.905 23.766 123.55 23.766C122.651 23.766 121.865 23.633 121.194 23.367C120.535 23.101 119.984 22.74 119.541 22.284C119.11 21.8153 118.787 21.2643 118.572 20.631C118.369 19.9977 118.268 19.3137 118.268 18.579ZM124.918 17.496C124.905 17.2553 124.861 17.021 124.785 16.793C124.722 16.565 124.614 16.3623 124.462 16.185C124.323 16.0077 124.139 15.862 123.911 15.748C123.696 15.634 123.423 15.577 123.094 15.577C122.777 15.577 122.505 15.634 122.277 15.748C122.049 15.8493 121.859 15.9887 121.707 16.166C121.555 16.3433 121.435 16.5523 121.346 16.793C121.27 17.021 121.213 17.2553 121.175 17.496H124.918Z" fill="#1842B4"/>
<defs>
<clipPath id="clip0_49_5000">
<rect width="36.5714" height="32" fill="white"/>
</clipPath>
<clipPath id="clip1_49_5000">
<rect width="36.5714" height="32" fill="white"/>
</clipPath>
</defs>
</svg>
