<svg width="37" height="32" viewBox="0 0 37 32" fill="none" xmlns="http://www.w3.org/2000/svg">
<g clip-path="url(#clip0_70_7201)">
<path fill-rule="evenodd" clip-rule="evenodd" d="M22.857 27.4287C24.0576 27.4287 25.2466 27.1922 26.3558 26.7327C27.4651 26.2732 28.473 25.5998 29.322 24.7508C30.171 23.9018 30.8444 22.8939 31.3039 21.7846C31.7633 20.6754 31.9999 19.4865 31.9999 18.2858C31.9999 14.6486 30.5549 11.1602 27.983 8.58836C25.4112 6.01642 21.9228 4.57153 18.2856 4.57153C14.6484 4.57153 11.16 6.01642 8.58811 8.58836C6.01618 11.1602 4.57129 14.6486 4.57129 18.2858C4.57129 19.4865 4.80778 20.6754 5.26724 21.7846C5.72672 22.8939 6.40018 23.9018 7.24917 24.7508C8.09816 25.5998 9.10606 26.2732 10.2154 26.7327C11.3246 27.1922 12.5135 27.4287 13.7141 27.4287H22.857ZM18.2856 8.22868C15.6182 8.22868 13.0602 9.28824 11.1741 11.1743C9.288 13.0604 8.22843 15.6185 8.22843 18.2858C8.22843 19.0062 8.37032 19.7195 8.646 20.3851C8.92169 21.0507 9.32576 21.6554 9.8352 22.1648C10.3445 22.6742 10.9493 23.0782 11.6149 23.354C12.2805 23.6296 12.9938 23.7715 13.7141 23.7715H22.857C23.5774 23.7715 24.2907 23.6296 24.9563 23.354C25.6219 23.0782 26.2266 22.6742 26.736 22.1648C27.2454 21.6554 27.6494 21.0507 27.9252 20.3851C28.2008 19.7195 28.3427 19.0062 28.3427 18.2858C28.3427 15.6185 27.2832 13.0604 25.3971 11.1743C23.511 9.28824 20.9529 8.22868 18.2856 8.22868Z" fill="#1842B4"/>
<path fill-rule="evenodd" clip-rule="evenodd" d="M11.8857 32C10.3248 32 8.77932 31.6453 7.33725 30.9561C5.89524 30.2669 4.58496 29.2567 3.48124 27.9832C2.37757 26.7097 1.50207 25.1979 0.904746 23.534C0.307435 21.8701 0 20.0867 0 18.2857C0 13.4361 1.92653 8.785 5.35577 5.35576C8.785 1.92653 13.4361 0 18.2857 0C23.1354 0 27.7864 1.92653 31.2156 5.35576C34.6449 8.785 36.5714 13.4361 36.5714 18.2857C36.5714 20.0867 36.264 21.8701 35.6667 23.534C35.0694 25.1979 34.1938 26.7097 33.0902 27.9832C31.9865 29.2567 30.6762 30.2669 29.2342 30.9561C27.7921 31.6453 26.2466 32 24.6857 32H11.8857ZM7.94175 7.94175C10.6852 5.19836 14.4059 3.65714 18.2857 3.65714C22.1655 3.65714 25.8863 5.19836 28.6297 7.94175C31.3731 10.6852 32.9143 14.4059 32.9143 18.2857C32.9143 19.6735 32.6769 21.0384 32.2246 22.2983C31.7723 23.5582 31.1201 24.6724 30.3265 25.588C29.5338 26.5027 28.6213 27.1956 27.6571 27.6564C26.6954 28.1161 25.6875 28.3429 24.6857 28.3429H11.8857C10.8839 28.3429 9.87602 28.1161 8.91428 27.6564C7.95016 27.1956 7.03762 26.5027 6.24491 25.588C5.45136 24.6724 4.79911 23.5582 4.34682 22.2983C3.8945 21.0384 3.65714 19.6735 3.65714 18.2857C3.65714 14.4059 5.19836 10.6852 7.94175 7.94175Z" fill="#1842B4"/>
<path d="M22.8571 22.8571H18.2817C17.9745 22.8568 17.6695 22.8256 17.3714 22.7648C16.7936 22.6468 16.2411 22.4175 15.746 22.0866C14.9942 21.5843 14.4082 20.8705 14.0622 20.0351C13.95 19.7642 13.8647 19.4845 13.8066 19.2C13.6855 18.6071 13.6829 17.993 13.8021 17.3938C13.9785 16.507 14.4139 15.6925 15.0532 15.0532C15.6925 14.4139 16.507 13.9785 17.3938 13.8021C17.4216 13.7965 17.4493 13.7913 17.4771 13.7863C17.7451 13.7382 18.0157 13.7143 18.2857 13.7143C18.8832 13.7143 19.4777 13.8314 20.0351 14.0622C20.8704 14.4082 21.5843 14.9942 22.0866 15.7459C22.589 16.4977 22.8571 17.3815 22.8571 18.2857H19.2C19.2 18.1048 19.1464 17.9281 19.0459 17.7777C18.9454 17.6274 18.8026 17.5102 18.6356 17.441C18.4685 17.3718 18.2847 17.3537 18.1073 17.3889C17.9299 17.4242 17.767 17.5113 17.6392 17.6392C17.5113 17.767 17.4242 17.9299 17.3889 18.1073C17.3537 18.2847 17.3718 18.4685 17.441 18.6356C17.5102 18.8026 17.6274 18.9454 17.7777 19.0459C17.9281 19.1464 18.1048 19.2 18.2857 19.2H22.8571C22.9772 19.2 23.0961 19.1763 23.207 19.1304C23.3179 19.0844 23.4187 19.0171 23.5036 18.9322C23.5885 18.8472 23.6558 18.7465 23.7018 18.6356C23.7477 18.5247 23.7714 18.4057 23.7714 18.2857C23.7714 16.8308 23.1935 15.4355 22.1646 14.4067C21.1359 13.3779 19.7406 12.8 18.2857 12.8C18.1279 12.8 17.9708 12.8067 17.8148 12.8202C17.4315 12.8532 17.0546 12.9263 16.6903 13.0371C16.3318 13.146 15.9853 13.2915 15.6565 13.4711C15.2798 13.6768 14.9261 13.9273 14.6039 14.2191C14.5367 14.2798 14.471 14.3424 14.4067 14.4067C13.9566 14.8567 13.5928 15.3771 13.326 15.9417C13.1926 16.2241 13.0833 16.5175 12.9997 16.8188C12.9041 17.1633 12.8419 17.518 12.8151 17.8783C12.8051 18.0134 12.8 18.1493 12.8 18.2857C12.8 19.0026 12.9405 19.7162 13.2175 20.385C13.6328 21.3874 14.3359 22.2441 15.238 22.8469C15.2431 22.8503 15.2482 22.8537 15.2534 22.8571H13.7143C13.1139 22.8571 12.5195 22.7389 11.9649 22.5091C11.4103 22.2794 10.9063 21.9426 10.4818 21.5181C10.0573 21.0936 9.72056 20.5897 9.4908 20.0351C9.26104 19.4805 9.14282 18.886 9.14282 18.2857C9.14282 15.8608 10.1061 13.5353 11.8207 11.8207C13.5353 10.1061 15.8608 9.14282 18.2857 9.14282C20.7105 9.14282 23.036 10.1061 24.7507 11.8207C26.4652 13.5353 27.4285 15.8608 27.4285 18.2857C27.4285 18.886 27.3103 19.4805 27.0806 20.0351C26.8508 20.5897 26.5141 21.0936 26.0896 21.5181C25.6651 21.9426 25.1611 22.2794 24.6065 22.5091C24.0519 22.7389 23.4574 22.8571 22.8571 22.8571Z" fill="#1842B4"/>
<g clip-path="url(#clip1_70_7201)">
<path fill-rule="evenodd" clip-rule="evenodd" d="M22.857 27.4287C24.0576 27.4287 25.2466 27.1922 26.3558 26.7327C27.4651 26.2732 28.473 25.5998 29.322 24.7508C30.171 23.9018 30.8444 22.8939 31.3039 21.7846C31.7633 20.6754 31.9999 19.4865 31.9999 18.2858C31.9999 14.6486 30.5549 11.1602 27.983 8.58836C25.4112 6.01642 21.9228 4.57153 18.2856 4.57153C14.6484 4.57153 11.16 6.01642 8.58811 8.58836C6.01618 11.1602 4.57129 14.6486 4.57129 18.2858C4.57129 19.4865 4.80778 20.6754 5.26724 21.7846C5.72672 22.8939 6.40018 23.9018 7.24917 24.7508C8.09816 25.5998 9.10606 26.2732 10.2154 26.7327C11.3246 27.1922 12.5135 27.4287 13.7141 27.4287H22.857ZM18.2856 8.22868C15.6182 8.22868 13.0602 9.28824 11.1741 11.1743C9.288 13.0604 8.22843 15.6185 8.22843 18.2858C8.22843 19.0062 8.37032 19.7195 8.646 20.3851C8.92169 21.0507 9.32576 21.6554 9.8352 22.1648C10.3445 22.6742 10.9493 23.0782 11.6149 23.354C12.2805 23.6296 12.9938 23.7715 13.7141 23.7715H22.857C23.5774 23.7715 24.2907 23.6296 24.9563 23.354C25.6219 23.0782 26.2266 22.6742 26.736 22.1648C27.2454 21.6554 27.6494 21.0507 27.9252 20.3851C28.2008 19.7195 28.3427 19.0062 28.3427 18.2858C28.3427 15.6185 27.2832 13.0604 25.3971 11.1743C23.511 9.28824 20.9529 8.22868 18.2856 8.22868Z" fill="#1842B4"/>
<path fill-rule="evenodd" clip-rule="evenodd" d="M11.8857 32C10.3248 32 8.77932 31.6453 7.33725 30.9561C5.89524 30.2669 4.58496 29.2567 3.48124 27.9832C2.37757 26.7097 1.50207 25.1979 0.904746 23.534C0.307435 21.8701 0 20.0867 0 18.2857C0 13.4361 1.92653 8.785 5.35577 5.35576C8.785 1.92653 13.4361 0 18.2857 0C23.1354 0 27.7864 1.92653 31.2156 5.35576C34.6449 8.785 36.5714 13.4361 36.5714 18.2857C36.5714 20.0867 36.264 21.8701 35.6667 23.534C35.0694 25.1979 34.1938 26.7097 33.0902 27.9832C31.9865 29.2567 30.6762 30.2669 29.2342 30.9561C27.7921 31.6453 26.2466 32 24.6857 32H11.8857ZM7.94175 7.94175C10.6852 5.19836 14.4059 3.65714 18.2857 3.65714C22.1655 3.65714 25.8863 5.19836 28.6297 7.94175C31.3731 10.6852 32.9143 14.4059 32.9143 18.2857C32.9143 19.6735 32.6769 21.0384 32.2246 22.2983C31.7723 23.5582 31.1201 24.6724 30.3265 25.588C29.5338 26.5027 28.6213 27.1956 27.6571 27.6564C26.6954 28.1161 25.6875 28.3429 24.6857 28.3429H11.8857C10.8839 28.3429 9.87602 28.1161 8.91428 27.6564C7.95016 27.1956 7.03762 26.5027 6.24491 25.588C5.45136 24.6724 4.79911 23.5582 4.34682 22.2983C3.8945 21.0384 3.65714 19.6735 3.65714 18.2857C3.65714 14.4059 5.19836 10.6852 7.94175 7.94175Z" fill="#1842B4"/>
</g>
</g>
<defs>
<clipPath id="clip0_70_7201">
<rect width="36.5714" height="32" fill="white"/>
</clipPath>
<clipPath id="clip1_70_7201">
<rect width="36.5714" height="32" fill="white"/>
</clipPath>
</defs>
</svg>
